<svg width="52px" height="52px" viewBox="0 0 52 52" version="1.1" xmlns="http://www.w3.org/2000/svg" xmlns:xlink="http://www.w3.org/1999/xlink">
  <g id="Page-1" stroke="none" stroke-width="1" fill="none" fill-rule="evenodd">
    <g id="bleenco-logo">
      <g id="Group">
        <path d="M23.83,24.84 C23.84,26.38 23.84,27.92 23.84,29.47 C23.86,30.43 24.02,31.46 24.63,32.23 C25.32,33.11 26.46,33.5 27.53,33.58 C28.69,33.64 29.93,33.65 30.97,33.05 C31.97,32.48 32.5,31.35 32.63,30.24 C32.82,28.98 32.75,27.62 32.06,26.51 C31.37,25.41 30.03,24.85 28.78,24.84 L23.83,24.84 Z M18.18,10.57 C19.28,9.47 21.17,9.33 22.43,10.24 C23.31,10.84 23.91,11.89 23.84,12.97 L23.84,17.62 C23.83,17.81 23.84,18.15 23.94,18.15 C25.68,18.14 27.42,18.15 29.15,18.14 C31.19,18.08 33.26,18.64 35,19.71 C36.48,20.63 37.69,21.99 38.41,23.59 C39.2,25.3 39.45,27.2 39.42,29.08 C39.42,31.17 39.1,33.32 38.12,35.2 C37.3,36.85 35.93,38.21 34.28,39.04 C32.5,39.96 30.5,40.33 28.51,40.4 C26.21,40.36 23.83,39.99 21.85,38.73 C19.93,37.54 18.65,35.55 18,33.44 C17.23,30.97 17.15,28.36 17.15,25.8 C17.13,25.48 17.27,25.14 17.13,24.82 C16.38,24.78 15.63,24.89 14.91,24.71 C13.87,24.44 12.98,23.61 12.62,22.59 C12.3,21.7 12.38,20.67 12.83,19.84 C13.29,19.02 14.08,18.39 14.99,18.17 C15.69,18.11 16.4,18.16 17.09,18.15 C17.08,16.55 17.09,14.95 17.08,13.34 C17.09,12.33 17.42,11.27 18.18,10.57 Z" id="Shape" fill="#FFFFFF"></path>
      </g>
    </g>
  </g>
</svg>
