
<svg width="104px" height="135px" viewBox="0 0 104 135" version="1.1" xmlns="http://www.w3.org/2000/svg" xmlns:xlink="http://www.w3.org/1999/xlink">
    <defs>
        <path d="M0,9.93295087 C0,4.41244261 4.48062521,-0.0345815422 10.0011308,0.000202675105 C10.0011308,0.000202675105 77.8720552,0.427851366 77.872059,0.427851366 C77.8720627,0.427851366 100,22.4320232 100,22.4320227 C100,22.4320222 100,120.437327 100,120.437327 C100,125.954941 95.5252671,130.427851 89.9999362,130.427851 L10.0000638,130.427851 C4.47718108,130.427851 0,125.95496 0,120.432087 L0,9.93295087 Z" id="path-1"></path>
        <filter x="-4.0%" y="-1.5%" width="108.0%" height="106.1%" filterUnits="objectBoundingBox" id="filter-2">
            <feOffset dx="0" dy="2" in="SourceAlpha" result="shadowOffsetOuter1"></feOffset>
            <feGaussianBlur stdDeviation="1" in="shadowOffsetOuter1" result="shadowBlurOuter1"></feGaussianBlur>
            <feColorMatrix values="0 0 0 0 0   0 0 0 0 0   0 0 0 0 0  0 0 0 0.2 0" type="matrix" in="shadowBlurOuter1"></feColorMatrix>
        </filter>
    </defs>
    <g id="Page-1" stroke="none" stroke-width="1" fill="none" fill-rule="evenodd">
        <g id="upload" transform="translate(-348.000000, -185.000000)">
            <g id="document" transform="translate(350.000000, 185.000000)">
                <g id="Rectangle-2">
                    <use fill="black" fill-opacity="1" filter="url(#filter-2)" xlink:href="#path-1"></use>
                    <use fill="#FFFFFF" fill-rule="evenodd" xlink:href="#path-1"></use>
                </g>
                <path d="M78,0 L100,22 L88.0021973,22 C82.4781363,22 78,17.5214543 78,11.9978027 L78,0 Z" id="Rectangle-3" fill="#D8D8D8"></path>
                <path d="M48.6505863,48.8150994 C49.1063163,48.3142045 49.763811,48 50.5,48 C51.1666297,48 51.7723186,48.2622203 52.2205142,48.6885683 C52.2485439,48.7142145 52.2761478,48.7406139 52.3033009,48.767767 C52.4242902,48.8887562 52.5301973,49.0191499 52.6210637,49.1565976 L59.3076968,55.8432308 C60.2738488,56.8093827 60.2796116,58.3980579 59.3033009,59.3743687 C58.3201835,60.3574861 56.7460458,60.3526476 55.7721629,59.3787647 L53,56.6066017 L53,80.4969323 C53,81.8793384 51.8903379,83 50.5,83 C49.1192881,83 48,81.8751281 48,80.4969323 L48,56.6066017 L45.2278371,59.3787647 C44.2539542,60.3526476 42.6798165,60.3574861 41.6966991,59.3743687 C40.7203884,58.3980579 40.7261512,56.8093827 41.6923032,55.8432308 L48.3789363,49.1565976 C48.4580698,49.0368974 48.5486107,48.9225472 48.6505863,48.8150994 Z" id="up" fill="#D8D8D8"></path>
            </g>
        </g>
    </g>
</svg>
